<mxfile host="app.diagrams.net" modified="2024-02-24T23:46:36.011Z" agent="Mozilla/5.0 (Macintosh; Intel Mac OS X 10_15_7) AppleWebKit/537.36 (KHTML, like Gecko) Chrome/120.0.0.0 Safari/537.36" etag="hbh5YjML2MPXwINWPiWZ" version="23.1.6" type="device">
  <diagram name="youtubeChatAI" id="OdCN1yytbfYSz6CbzW1o">
    <mxGraphModel dx="858" dy="487" grid="1" gridSize="10" guides="1" tooltips="1" connect="1" arrows="1" fold="1" page="1" pageScale="1" pageWidth="850" pageHeight="1100" math="0" shadow="0">
      <root>
        <mxCell id="WnTQ4Z6a-Ea_7mhcwyWi-0" />
        <mxCell id="WnTQ4Z6a-Ea_7mhcwyWi-1" parent="WnTQ4Z6a-Ea_7mhcwyWi-0" />
        <mxCell id="HtLDFk02XIdqE0k4USw7-0" value="" style="shape=ext;double=1;rounded=0;whiteSpace=wrap;html=1;fillColor=#e1d5e7;strokeColor=#9673a6;movable=0;resizable=0;rotatable=0;deletable=0;editable=0;locked=1;connectable=0;" parent="WnTQ4Z6a-Ea_7mhcwyWi-1" vertex="1">
          <mxGeometry x="70" y="100" width="750" height="430" as="geometry" />
        </mxCell>
        <mxCell id="WnTQ4Z6a-Ea_7mhcwyWi-4" value="AWS CodePipeline" style="sketch=0;outlineConnect=0;fontColor=#232F3E;gradientColor=none;strokeColor=#ffffff;fillColor=#232F3E;dashed=0;verticalLabelPosition=middle;verticalAlign=bottom;align=center;html=1;whiteSpace=wrap;fontSize=10;fontStyle=1;spacing=3;shape=mxgraph.aws4.productIcon;prIcon=mxgraph.aws4.codepipeline;" parent="WnTQ4Z6a-Ea_7mhcwyWi-1" vertex="1">
          <mxGeometry x="210" y="260" width="80" height="110" as="geometry" />
        </mxCell>
        <mxCell id="WnTQ4Z6a-Ea_7mhcwyWi-5" value="Amazon S3" style="sketch=0;outlineConnect=0;fontColor=#232F3E;gradientColor=none;strokeColor=#ffffff;fillColor=#232F3E;dashed=0;verticalLabelPosition=middle;verticalAlign=bottom;align=center;html=1;whiteSpace=wrap;fontSize=10;fontStyle=1;spacing=3;shape=mxgraph.aws4.productIcon;prIcon=mxgraph.aws4.s3;" parent="WnTQ4Z6a-Ea_7mhcwyWi-1" vertex="1">
          <mxGeometry x="350" y="260" width="80" height="110" as="geometry" />
        </mxCell>
        <mxCell id="WnTQ4Z6a-Ea_7mhcwyWi-6" value="Amazon Route 53" style="sketch=0;outlineConnect=0;fontColor=#232F3E;gradientColor=none;strokeColor=#ffffff;fillColor=#232F3E;dashed=0;verticalLabelPosition=middle;verticalAlign=bottom;align=center;html=1;whiteSpace=wrap;fontSize=10;fontStyle=1;spacing=3;shape=mxgraph.aws4.productIcon;prIcon=mxgraph.aws4.route_53;" parent="WnTQ4Z6a-Ea_7mhcwyWi-1" vertex="1">
          <mxGeometry x="630" y="260" width="80" height="110" as="geometry" />
        </mxCell>
        <mxCell id="WnTQ4Z6a-Ea_7mhcwyWi-7" value="AWS Certificate Manager" style="sketch=0;outlineConnect=0;fontColor=#232F3E;gradientColor=none;strokeColor=#ffffff;fillColor=#232F3E;dashed=0;verticalLabelPosition=middle;verticalAlign=bottom;align=center;html=1;whiteSpace=wrap;fontSize=10;fontStyle=1;spacing=3;shape=mxgraph.aws4.productIcon;prIcon=mxgraph.aws4.certificate_manager_3;" parent="WnTQ4Z6a-Ea_7mhcwyWi-1" vertex="1">
          <mxGeometry x="570" y="150" width="70" height="100" as="geometry" />
        </mxCell>
        <mxCell id="WnTQ4Z6a-Ea_7mhcwyWi-8" value="Amazon Cloudfront" style="sketch=0;outlineConnect=0;fontColor=#232F3E;gradientColor=none;strokeColor=#ffffff;fillColor=#232F3E;dashed=0;verticalLabelPosition=middle;verticalAlign=bottom;align=center;html=1;whiteSpace=wrap;fontSize=10;fontStyle=1;spacing=3;shape=mxgraph.aws4.productIcon;prIcon=mxgraph.aws4.cloudfront;" parent="WnTQ4Z6a-Ea_7mhcwyWi-1" vertex="1">
          <mxGeometry x="700" y="150" width="70" height="100" as="geometry" />
        </mxCell>
        <mxCell id="WnTQ4Z6a-Ea_7mhcwyWi-10" value="" style="dashed=0;outlineConnect=0;html=1;align=center;labelPosition=center;verticalLabelPosition=bottom;verticalAlign=top;shape=mxgraph.weblogos.github" parent="WnTQ4Z6a-Ea_7mhcwyWi-1" vertex="1">
          <mxGeometry x="100" y="350" width="75" height="75" as="geometry" />
        </mxCell>
        <mxCell id="WnTQ4Z6a-Ea_7mhcwyWi-11" value="" style="endArrow=classic;html=1;rounded=0;" parent="WnTQ4Z6a-Ea_7mhcwyWi-1" source="WnTQ4Z6a-Ea_7mhcwyWi-10" edge="1">
          <mxGeometry width="50" height="50" relative="1" as="geometry">
            <mxPoint x="115" y="420" as="sourcePoint" />
            <mxPoint x="210" y="310" as="targetPoint" />
          </mxGeometry>
        </mxCell>
        <mxCell id="WnTQ4Z6a-Ea_7mhcwyWi-24" value="" style="endArrow=classic;html=1;rounded=0;" parent="WnTQ4Z6a-Ea_7mhcwyWi-1" edge="1">
          <mxGeometry width="50" height="50" relative="1" as="geometry">
            <mxPoint x="290" y="300" as="sourcePoint" />
            <mxPoint x="350" y="300" as="targetPoint" />
          </mxGeometry>
        </mxCell>
        <mxCell id="6AvuD6jutoS3DAfwq7Gx-0" value="" style="endArrow=none;dashed=1;html=1;rounded=0;" parent="WnTQ4Z6a-Ea_7mhcwyWi-1" edge="1">
          <mxGeometry width="50" height="50" relative="1" as="geometry">
            <mxPoint x="670" y="260" as="sourcePoint" />
            <mxPoint x="700" y="200" as="targetPoint" />
            <Array as="points">
              <mxPoint x="640" y="200" />
            </Array>
          </mxGeometry>
        </mxCell>
        <mxCell id="6AvuD6jutoS3DAfwq7Gx-1" value="" style="endArrow=none;dashed=1;html=1;rounded=0;" parent="WnTQ4Z6a-Ea_7mhcwyWi-1" edge="1">
          <mxGeometry width="50" height="50" relative="1" as="geometry">
            <mxPoint x="670" y="260" as="sourcePoint" />
            <mxPoint x="700" y="200" as="targetPoint" />
          </mxGeometry>
        </mxCell>
        <mxCell id="HtLDFk02XIdqE0k4USw7-2" value="" style="endArrow=classic;html=1;rounded=0;" parent="WnTQ4Z6a-Ea_7mhcwyWi-1" edge="1">
          <mxGeometry width="50" height="50" relative="1" as="geometry">
            <mxPoint x="430" y="300" as="sourcePoint" />
            <mxPoint x="490" y="300" as="targetPoint" />
          </mxGeometry>
        </mxCell>
        <mxCell id="HtLDFk02XIdqE0k4USw7-3" value="" style="endArrow=classic;html=1;rounded=0;" parent="WnTQ4Z6a-Ea_7mhcwyWi-1" edge="1">
          <mxGeometry width="50" height="50" relative="1" as="geometry">
            <mxPoint x="570" y="300" as="sourcePoint" />
            <mxPoint x="630" y="300" as="targetPoint" />
          </mxGeometry>
        </mxCell>
        <mxCell id="3uOTTBrvXM_HpupbsyxC-0" value="AWS Lambda" style="sketch=0;outlineConnect=0;fontColor=#232F3E;gradientColor=none;strokeColor=#ffffff;fillColor=#232F3E;dashed=0;verticalLabelPosition=middle;verticalAlign=bottom;align=center;html=1;whiteSpace=wrap;fontSize=10;fontStyle=1;spacing=3;shape=mxgraph.aws4.productIcon;prIcon=mxgraph.aws4.lambda;" parent="WnTQ4Z6a-Ea_7mhcwyWi-1" vertex="1">
          <mxGeometry x="490" y="260" width="80" height="110" as="geometry" />
        </mxCell>
      </root>
    </mxGraphModel>
  </diagram>
</mxfile>
